<?xml version="1.0" encoding="iso-8859-1"?>
<!-- Generator: Adobe Illustrator 19.0.0, SVG Export Plug-In . SVG Version: 6.00 Build 0)  -->
<svg version="1.1" id="Capa_1" xmlns="http://www.w3.org/2000/svg" xmlns:xlink="http://www.w3.org/1999/xlink" x="0px" y="0px"
	 viewBox="0 0 506.543 506.543" style="enable-background:new 0 0 506.543 506.543;" xml:space="preserve">
<g>
	<g>
		<g>
			<path d="M478.141,98.736l-9.936-25.824L450.781,94.4c-0.544,0.688-55.648,67.776-128.144,78.128
				c-13.76,1.968-26.608,4.528-39.024,7.392c3.408-56.368-19.6-110.144-68.48-160.208L195.821,0l-7.52,26.576
				c-0.176,0.56-16.848,57.952-59.2,83.792c-46.4,28.4-75.952,59.792-90.192,95.888c-14.385,34.117-14.753,72.526-1.024,106.912
				c9.608,23.589,28.226,42.373,51.728,52.192c2.301,0.877,4.645,1.636,7.024,2.272c-1.228,15.956,0.178,32.005,4.16,47.504
				c-8.624,0.752-16.864,1.136-24.576,1.136c-21.166,0.41-42.267-2.478-62.544-8.56l-10.992,30.08
				c23.802,7.464,48.661,11.004,73.6,10.48c12.392-0.046,24.771-0.82,37.072-2.32c5.26,9.23,11.716,17.725,19.2,25.264
				c25.914,24.07,60.394,36.748,95.728,35.2c54.059-1.235,106.263-19.944,148.8-53.328l4.688-3.68
				C425.773,414.944,559.485,310.24,478.141,98.736z M102.013,335.808l-0.256-0.096c-15.81-6.566-28.276-19.27-34.544-35.2
				c-10.387-26.597-9.893-56.213,1.376-82.448c11.616-29.456,36.8-55.744,77.136-80.384c28.141-18.834,50.19-45.453,63.456-76.608
				c31.303,34.866,46.249,81.429,41.088,128c-35.648,10.868-68.22,30.013-95.056,55.872
				C129.778,270.011,111.424,301.359,102.013,335.808z M362.109,424.144l-4.8,3.792c-65.072,51.536-161.376,61.376-202.096,20.656
				c-2.693-2.701-5.205-5.577-7.52-8.608c65.488-14.912,145.312-53.472,227.296-142.032l-23.488-21.744
				c-80.16,86.608-157.232,122-218.784,134.4c-4.389-14.947-5.68-30.633-3.792-46.096c4.877-36.916,22.111-71.092,48.896-96.96
				c32.976-32.992,81.84-53.712,149.344-63.344c49.251-9.531,94.446-33.797,129.6-69.584
				C511.101,307.472,403.677,391.6,362.109,424.144z"/>
			<path d="M372.157,252.784l24.464,20.624c6.827-8.117,13.664-16.603,20.512-25.456l-25.344-19.536
				C385.245,236.912,378.685,245.008,372.157,252.784z"/>
		</g>
	</g>
</g>
<g>
</g>
<g>
</g>
<g>
</g>
<g>
</g>
<g>
</g>
<g>
</g>
<g>
</g>
<g>
</g>
<g>
</g>
<g>
</g>
<g>
</g>
<g>
</g>
<g>
</g>
<g>
</g>
<g>
</g>
</svg>
