<svg xmlns="http://www.w3.org/2000/svg" xmlns:xlink="http://www.w3.org/1999/xlink" viewBox="0 0 1600 395">
  <g id="custom_1" data-name="custom – 1" clip-path="url(#clip-custom_1)">
    <rect width="1600" height="395" fill="transparent"/>
    <g id="Grupo_1" data-name="Grupo 1" transform="translate(0 -415)">
      <path id="back" d="M1734.97,93.533H1704.7c-57.495-8.762-201.919-7.529-316.908,49.35S1059.764,306.689,944.774,306.228c-114.989.461-239.607-42.708-370.191-54.194-135.1-13.841-141.683,35.37-256.672,59.505-114.989,25.058-183.4,25.307-260.416,0L0,321.916V462.479H1724.837l5.1-254.111" transform="translate(-84.48 337.481)" fill="rgba(255,255, 255,0.3)"/>
      <path id="middle" d="M1681.939,169.541l-4.958,190.152H0V248.954l64.765,5.555c68.473-.36,150.592-36.348,262.391-55.1,111.8-18.06,100.6-21.808,231.951-11.45C686.068,196.554,802.3,213.847,914.1,213.5c111.8.345,306.849-102.307,427.483-132.834s219.933-43.538,279.5-29.97l55.9,14.507" transform="translate(-6 440.307)" fill="rgba(255,255, 255,0.6)"/>
      <path id="front" d="M1698.1,163.536,1693.1,344.666H0V203.108l61.731,27.334c61.39,17.994,325.739-85.544,458.347-75.679,128.182,8.187,284.461,37.109,397.334,36.78,112.874.329,324.192-69.319,437.065-109.862s262.466-66.323,318.9-60.078h30.586" transform="translate(-64.838 486.293)" fill="#fff"/>
    </g>
  </g>
</svg>
